<svg width="200" height="200" viewBox="0 0 200 200" fill="none" xmlns="http://www.w3.org/2000/svg">
<rect width="200" height="200" fill="#F97316"/>
<path d="M89.72 58.72C89.72 56.6933 90.84 54.4533 93.08 52C95.4267 49.44 97.56 48.16 99.48 48.16C101.507 48.16 103.693 49.3867 106.04 51.84C108.387 54.2933 109.56 56.5867 109.56 58.72C109.56 60.7467 108.387 62.9867 106.04 65.44C103.693 67.8933 101.507 69.12 99.48 69.12C97.6667 69.12 95.5867 67.8933 93.24 65.44C90.8933 62.9867 89.72 60.7467 89.72 58.72ZM106.68 149.92C106.68 153.547 108.28 155.36 111.48 155.36C114.147 155.36 116.813 154.24 119.48 152L122.52 156.16C119.747 159.253 116.76 161.707 113.56 163.52C110.36 165.333 107.373 166.24 104.6 166.24C100.227 166.24 97.08 164.907 95.16 162.24C93.24 159.573 92.28 155.253 92.28 149.28V99.68C92.28 98.4 92.0133 97.4933 91.48 96.96C91.0533 96.4267 90.2533 96.16 89.08 96.16H82.04L80.6 92C83.6933 89.2267 87.2133 86.9333 91.16 85.12C95.1067 83.3067 98.6267 82.4 101.72 82.4C103.213 82.4 104.44 82.88 105.4 83.84C106.36 84.8 106.84 86.0267 106.84 87.52L106.68 149.92Z" fill="white"/>
</svg>
